<?xml version="1.0" encoding="utf-8"?>
<!-- Generator: Adobe Illustrator 26.3.1, SVG Export Plug-In . SVG Version: 6.00 Build 0)  -->
<svg version="1.1" id="Capa_1" xmlns="http://www.w3.org/2000/svg" xmlns:xlink="http://www.w3.org/1999/xlink" x="0px" y="0px"
	 viewBox="0 0 480 480" style="enable-background:new 0 0 480 480;" xml:space="preserve">
<style type="text/css">
	.st0{fill:#FFFFFF;}
	.st1{fill:#4070F4;}
</style>
<path class="st0" d="M240,476C109.7,476,4,370.3,4,240c0-62.6,24.9-122.6,69.1-166.9c92.2-92.2,241.6-92.2,333.8,0
	s92.2,241.6,0,333.8C362.7,451.3,302.6,476.2,240,476z"/>
<path d="M240,8c128.1-0.1,232,103.7,232.1,231.8c0,61.6-24.4,120.7-68.1,164.3c-90.7,90.5-237.6,90.4-328.1-0.2
	s-90.4-237.6,0.2-328.1c21.1-21.1,46.1-37.9,73.5-49.5C178.3,14.1,209,7.9,240,8 M240,0C107.4,0,0,107.4,0,240s107.4,240,240,240
	s240-107.5,240-240S372.5,0,240,0z"/>
<circle class="st1" cx="240" cy="240" r="197.5"/>
</svg>
