<?xml version="1.0" encoding="UTF-8"?><svg id="a" xmlns="http://www.w3.org/2000/svg" viewBox="0 0 1190.64 292.43"><defs><style>.b{fill:#010101;}.c{stroke-linecap:round;}.c,.d{fill:none;stroke:#010101;stroke-width:5px;}</style></defs><path class="c" d="M48,286.39V94.89c0-38.5,15-49,49-49H255.5c40,0,49,13,49,49v115.5m-38,38l38,38v-76m-38,38l38-38m-38,38H75.5m0,0v-31m0,31v30"/><path class="c" d="M358,74.89c0,55-44.5,102.5-104.5,102.5h-64"/><circle class="d" cx="146" cy="177.39" r="12.5"/><circle class="d" cx="15" cy="139.39" r="12.5"/><path class="c" d="M146,164.39V13.76c0-3.93,2.13-7.55,5.56-9.47l.92-.51c5.46-3.05,12.35-.38,14.33,5.56h0c1.32,3.95,.04,8.3-3.19,10.92L25.5,131.89"/><path class="b" d="M443.86,121.9h7.53l24.13-66.58h2.32v-9.43h-5.53l-28.44,76.01Zm12.27-23.34h39.51l-2.21-6.16h-35.08l-2.21,6.16Zm44.14,23.34h7.58l-28.44-76.01h-3.27v9.43l24.13,66.58Zm80.7,0h7.53l24.13-66.58h2.32v-9.43h-5.53l-28.45,76.01Zm12.27-23.34h39.51l-2.21-6.16h-35.08l-2.21,6.16Zm44.14,23.34h7.58l-28.44-76.01h-3.27v9.43l24.13,66.58Zm86.55,0h7.11V58.69h3.79l-5-2.63,46.36,65.85h6.9V45.89h-7.06v63.16h-3.79l4.95,2.63-46.15-65.79h-7.11V121.9Zm164.35,0h7.16V52.37h25.5v-6.48h-58.15v6.48h25.5V121.9Zm97.72,0h7.53l24.13-66.58h2.32v-9.43h-5.53l-28.44,76.01Zm12.27-23.34h39.51l-2.21-6.16h-35.08l-2.21,6.16Zm44.14,23.34h7.58l-28.44-76.01h-3.27v9.43l24.13,66.58Zm86.55,0h7.17v-35.71h44.51v35.71h7.16V45.89h-7.16v33.82h-44.51V45.89h-7.17V121.9Z"/><path class="b" d="M464.71,194.77h11.34l4.38,11.08h-15.72v29.77c0,3.35,.73,6.06,2.19,8.12,1.55,1.97,3.82,2.96,6.83,2.96,1.97,0,4.12-.52,6.44-1.55l3.99,10.7c-1.29,.86-3.09,1.59-5.41,2.19-2.23,.69-4.29,1.03-6.19,1.03-6.96,0-12.41-1.8-16.36-5.41-3.95-3.61-5.93-8.8-5.93-15.59v-32.21h-8.63v-11.08h8.63v-15.33l14.43-2.83v18.17Zm59.71-2.19c9.19,0,16.15,3.05,20.88,9.15,4.73,6.1,7.09,13.87,7.09,23.32v4.25h-43.3c1.29,11.17,7.95,16.75,19.97,16.75,3.35,0,6.31-.43,8.89-1.29,2.66-.94,5.84-2.36,9.54-4.25l4.38,10.57c-6.96,4.81-14.65,7.22-23.07,7.22-11.34,0-20.01-2.92-26.03-8.76-5.93-5.93-8.89-13.96-8.89-24.1,0-6.53,1.2-12.24,3.61-17.14,2.49-4.98,6.01-8.85,10.57-11.6,4.64-2.75,10.09-4.12,16.36-4.12Zm-.39,12.37c-4.12,0-7.47,1.29-10.05,3.87-2.49,2.58-4.04,6.19-4.64,10.82h29.12c-.77-4.81-2.36-8.46-4.77-10.95-2.41-2.49-5.63-3.74-9.66-3.74Zm71.36,40.98c3.18,0,6.06-.34,8.63-1.03,2.58-.69,5.41-1.76,8.5-3.22l4.25,10.57c-2.66,1.89-6.14,3.39-10.44,4.51-4.29,1.12-7.95,1.68-10.95,1.68-6.53,0-12.2-1.38-17.01-4.12-4.81-2.75-8.55-6.57-11.21-11.47-2.58-4.98-3.87-10.78-3.87-17.4s1.29-12.24,3.87-17.14c2.66-4.98,6.44-8.85,11.34-11.6,4.9-2.75,10.61-4.12,17.14-4.12,2.92,0,6.53,.6,10.82,1.8,4.29,1.12,7.77,2.62,10.44,4.51l-4.12,10.31c-3.35-1.46-6.31-2.54-8.89-3.22-2.49-.69-5.24-1.03-8.25-1.03-5.15,0-9.36,1.93-12.63,5.8-3.18,3.87-4.81,8.76-4.9,14.69,0,6.1,1.55,11.04,4.64,14.82,3.18,3.78,7.39,5.67,12.63,5.67Zm94.04-29.38v40.2h-14.43v-39.3c0-8.68-3.26-13.01-9.79-13.01-5.15,0-11.21,2.88-18.17,8.63v43.68h-14.43v-89.56l14.43-1.42v34.28c3.52-2.41,7.17-4.29,10.95-5.67,3.78-1.46,7.34-2.19,10.7-2.19,13.83,0,20.75,8.12,20.75,24.35Zm51.09-12.11c-5.24,0-11.34,2.88-18.3,8.63v43.68h-14.43v-62.5h9.66l2.58,7.47c3.61-2.92,7.56-5.24,11.85-6.96,4.29-1.72,8.33-2.58,12.11-2.58,7.3,0,12.58,2.19,15.85,6.57,3.26,4.29,4.9,10.22,4.9,17.78v40.2h-14.56v-39.3c0-8.68-3.22-13.01-9.66-13.01Zm70.58,53.99c-6.53,0-12.2-1.38-17.01-4.12-4.81-2.75-8.55-6.57-11.21-11.47-2.58-4.98-3.87-10.78-3.87-17.4s1.29-12.24,3.87-17.14c2.66-4.98,6.44-8.85,11.34-11.6,4.9-2.75,10.61-4.12,17.14-4.12s12.2,1.38,17.01,4.12c4.9,2.66,8.63,6.48,11.21,11.47,2.66,4.98,3.99,10.74,3.99,17.27s-1.33,12.28-3.99,17.27c-2.66,4.98-6.44,8.85-11.34,11.6-4.9,2.75-10.61,4.12-17.14,4.12Zm17.52-32.86c0-6.1-1.59-11.04-4.77-14.82-3.09-3.87-7.26-5.8-12.5-5.8s-9.36,1.93-12.63,5.8c-3.18,3.87-4.81,8.76-4.9,14.69,0,6.1,1.55,11.04,4.64,14.82,3.18,3.78,7.39,5.67,12.63,5.67s9.45-1.93,12.63-5.8c3.27-3.87,4.9-8.72,4.9-14.56Zm45.44-59.79v90.97h-14.43v-89.56l14.43-1.42Zm48.2,92.65c-6.53,0-12.2-1.38-17.01-4.12-4.81-2.75-8.55-6.57-11.21-11.47-2.58-4.98-3.87-10.78-3.87-17.4s1.29-12.24,3.87-17.14c2.66-4.98,6.44-8.85,11.34-11.6s10.61-4.12,17.14-4.12,12.2,1.38,17.01,4.12c4.9,2.66,8.63,6.48,11.21,11.47,2.66,4.98,3.99,10.74,3.99,17.27s-1.33,12.28-3.99,17.27c-2.66,4.98-6.44,8.85-11.34,11.6-4.9,2.75-10.61,4.12-17.14,4.12Zm17.52-32.86c0-6.1-1.59-11.04-4.77-14.82-3.09-3.87-7.26-5.8-12.5-5.8s-9.36,1.93-12.63,5.8c-3.18,3.87-4.81,8.76-4.9,14.69,0,6.1,1.55,11.04,4.64,14.82,3.18,3.78,7.39,5.67,12.63,5.67s9.45-1.93,12.63-5.8c3.26-3.87,4.9-8.72,4.9-14.56Zm85.39,35.44c0,7.82-2.83,14-8.5,18.56-5.59,4.55-13.27,6.83-23.07,6.83-3.09,0-7.13-.6-12.11-1.8-4.9-1.2-8.76-2.79-11.6-4.77l4.38-10.44c3.87,1.8,7.17,3.13,9.92,3.99,2.83,.86,5.84,1.29,9.02,1.29,5.15,0,9.32-1.25,12.5-3.74,3.26-2.41,4.9-5.76,4.9-10.05v-6.7c-2.24,1.38-4.55,2.41-6.96,3.09-2.41,.77-4.68,1.16-6.83,1.16-6.36,0-11.9-1.38-16.62-4.12-4.64-2.75-8.25-6.61-10.82-11.6-2.49-4.98-3.74-10.78-3.74-17.4s1.24-12.24,3.74-17.14c2.58-4.98,6.23-8.8,10.95-11.47,4.81-2.75,10.39-4.12,16.75-4.12,2.58,0,5.45,.6,8.63,1.8,3.18,1.2,6.01,2.83,8.5,4.9l3.09-5.03h7.86v66.75Zm-14.56-20.23v-30.67c-2.06-1.8-4.17-3.09-6.31-3.87-2.15-.86-4.56-1.29-7.22-1.29-5.15,0-9.24,1.89-12.24,5.67-2.92,3.78-4.38,8.63-4.38,14.56,0,6.27,1.46,11.3,4.38,15.08,3.01,3.78,7.09,5.67,12.24,5.67,2.58,0,4.94-.39,7.09-1.16,2.15-.86,4.29-2.19,6.44-3.99Zm49.83-65.2c0,2.41-.86,4.47-2.58,6.19s-3.65,2.45-6.06,2.45-4.42-.82-6.06-2.45c-1.55-1.72-2.32-3.78-2.32-6.19s.82-4.29,2.45-5.93c1.63-1.72,3.61-2.58,5.93-2.58s4.42,.86,6.06,2.58c1.72,1.63,2.58,3.61,2.58,5.93Zm-1.16,18.68v62.5h-14.56v-62.5h14.56Zm45.3-1.68c9.19,0,16.15,3.05,20.88,9.15,4.73,6.1,7.09,13.87,7.09,23.32v4.25h-43.3c1.29,11.17,7.95,16.75,19.97,16.75,3.35,0,6.31-.43,8.89-1.29,2.66-.94,5.84-2.36,9.54-4.25l4.38,10.57c-6.96,4.81-14.64,7.22-23.07,7.22-11.34,0-20.01-2.92-26.03-8.76-5.93-5.93-8.89-13.96-8.89-24.1,0-6.53,1.2-12.24,3.61-17.14,2.49-4.98,6.01-8.85,10.57-11.6,4.64-2.75,10.1-4.12,16.36-4.12Zm-.39,12.37c-4.12,0-7.47,1.29-10.05,3.87-2.49,2.58-4.04,6.19-4.64,10.82h29.12c-.77-4.81-2.36-8.46-4.77-10.95-2.4-2.49-5.62-3.74-9.66-3.74Zm60.67,53.48c-3.09,0-6.74-.56-10.95-1.68-4.12-1.03-7.47-2.49-10.05-4.38l4.38-10.05c5.93,2.83,11.47,4.25,16.62,4.25,3.27,0,6.06-.6,8.38-1.8s3.48-2.83,3.48-4.9c0-3.78-4.12-7-12.37-9.66-13.74-4.47-20.62-10.82-20.62-19.07,0-5.76,2.15-10.27,6.44-13.53,4.3-3.35,10.14-5.03,17.52-5.03,2.92,0,6.4,.56,10.44,1.68,4.12,1.12,7.56,2.62,10.31,4.51l-4.51,9.79c-3.01-1.38-5.8-2.41-8.38-3.09-2.49-.77-5.2-1.16-8.12-1.16-2.66,0-4.9,.64-6.7,1.93-1.8,1.29-2.71,2.88-2.71,4.77,.09,1.46,1.12,2.79,3.09,3.99,1.98,1.2,4.73,2.41,8.25,3.61,14.17,5.07,21.26,11.94,21.26,20.62,0,6.1-2.23,10.82-6.7,14.17-4.38,3.35-10.74,5.03-19.07,5.03Z"/></svg>